<svg width="42" height="18" viewBox="0 0 42 18" fill="none" xmlns="http://www.w3.org/2000/svg">
<path d="M0 0.463546C0 0.218897 0.198485 0 0.468554 0H3.41003C3.65732 0 3.87858 0.218897 3.87858 0.463546V13.5298H9.76479C10.0381 13.5298 10.2333 13.7487 10.2333 13.9933V16.6587C10.2333 16.9033 10.0349 17.1222 9.76479 17.1222H0.468554C0.195231 17.1222 0 16.9033 0 16.6587V0.463546Z" fill="#605F5F"/>
<path d="M12 0.463547C12 0.218898 12.1952 0 12.4653 0H22.6043C22.8743 0 23.0696 0.218898 23.0696 0.463547V3.11606C23.0696 3.36071 22.8743 3.57961 22.6043 3.57961H15.8233V7.08196H21.4069C21.6509 7.08196 21.8722 7.30085 21.8722 7.5455V10.198C21.8722 10.4427 21.6509 10.6616 21.4069 10.6616H15.8233V16.575C15.8233 16.8196 15.602 17.0385 15.358 17.0385H12.4653C12.1952 17.0385 12 16.8196 12 16.575V0.466766V0.463547Z" fill="#605F5F"/>
<path d="M28.0738 8.09274C30.3237 8.09274 32.1476 6.28112 32.1476 4.04637C32.1476 1.81162 30.3237 0 28.0738 0C25.8239 0 24 1.81162 24 4.04637C24 6.28112 25.8239 8.09274 28.0738 8.09274Z" fill="#605F5F"/>
<path d="M37.2215 17.0927C39.4714 17.0927 41.2953 15.2811 41.2953 13.0464C41.2953 10.8116 39.4714 9 37.2215 9C34.9716 9 33.1477 10.8116 33.1477 13.0464C33.1477 15.2811 34.9716 17.0927 37.2215 17.0927Z" fill="#605F5F"/>
<path d="M28.0738 17.0927C30.3237 17.0927 32.1476 15.2811 32.1476 13.0464C32.1476 10.8116 30.3237 9 28.0738 9C25.8239 9 24 10.8116 24 13.0464C24 15.2811 25.8239 17.0927 28.0738 17.0927Z" fill="#605F5F"/>
</svg>
