<svg width="73" height="37" viewBox="0 0 73 37" fill="none" xmlns="http://www.w3.org/2000/svg">
<g clip-path="url(#clip0_29_37)">
<path d="M0 0.708175C0 0.463526 0.198485 0.244629 0.468554 0.244629H3.41003C3.65732 0.244629 3.87858 0.463526 3.87858 0.708175V13.7744H9.76479C10.0381 13.7744 10.2333 13.9933 10.2333 14.2379V16.9033C10.2333 17.148 10.0349 17.3669 9.76479 17.3669H0.468554C0.195231 17.3669 0 17.148 0 16.9033V0.708175Z" fill="white"/>
<path d="M12.6348 0.708175C12.6348 0.463526 12.856 0.244629 13.1033 0.244629H16.0708C16.3181 0.244629 16.5394 0.463526 16.5394 0.708175V16.9033C16.5394 17.148 16.3181 17.3669 16.0708 17.3669H13.1033C12.856 17.3669 12.6348 17.148 12.6348 16.9033V0.708175Z" fill="white"/>
<path d="M20.7725 0.441013C20.7725 0.196363 20.9937 0 21.241 0H21.8592L31.7282 9.39647H31.7542V0.708196C31.7542 0.463546 31.9527 0.244649 32.2227 0.244649H35.1902C35.4375 0.244649 35.6588 0.463546 35.6588 0.708196V17.1737C35.6588 17.4184 35.4375 17.6148 35.1902 17.6148H34.7933C34.7184 17.6148 34.52 17.5407 34.4711 17.4924L24.7031 7.78049H24.6771V16.9066C24.6771 17.1512 24.4786 17.3701 24.2085 17.3701H21.267C21.0198 17.3701 20.7985 17.1512 20.7985 16.9066L20.7725 0.441013Z" fill="white"/>
<path d="M47.5778 0C50.0507 0 51.8794 0.759701 53.5616 2.27588C53.7829 2.47225 53.7829 2.76518 53.5877 2.96155L51.6581 4.94449C51.4857 5.1151 51.2123 5.1151 51.0399 4.94449C50.1256 4.13651 48.9119 3.69549 47.7014 3.69549C44.9064 3.69549 42.8532 5.99391 42.8532 8.73656C42.8532 11.4792 44.9292 13.7036 47.7242 13.7036C48.8858 13.7036 50.1483 13.2883 51.0366 12.5286C51.2091 12.3805 51.5312 12.3805 51.6809 12.5544L53.6104 14.5856C53.7829 14.7562 53.7601 15.0749 53.5844 15.2455C51.9022 16.8615 49.7774 17.618 47.5745 17.618C42.6287 17.618 38.646 13.7293 38.646 8.83313C38.646 3.93692 42.632 0 47.5778 0Z" fill="white"/>
<path d="M64.0975 0C69.0434 0 73 3.94014 73 8.83313C73 13.7261 69.0434 17.618 64.0975 17.618C59.1517 17.618 55.2178 13.7293 55.2178 8.83313C55.2178 3.93692 59.1517 0 64.0975 0ZM64.0975 13.7004C66.8177 13.7004 69.0434 11.4985 69.0434 8.83313C69.0434 6.16774 66.8177 3.91439 64.0975 3.91439C61.3773 3.91439 59.1777 6.14199 59.1777 8.83313C59.1777 11.5243 61.4033 13.7004 64.0975 13.7004Z" fill="white"/>
<path d="M0.0324707 20.4314C0.0324707 20.1868 0.227701 19.9679 0.49777 19.9679H10.6367C10.9068 19.9679 11.102 20.1868 11.102 20.4314V23.084C11.102 23.3286 10.9068 23.5475 10.6367 23.5475H3.85574V27.0499H9.43933C9.68337 27.0499 9.90463 27.2687 9.90463 27.5134V30.1659C9.90463 30.4106 9.68337 30.6295 9.43933 30.6295H3.85574V36.5429C3.85574 36.7875 3.63448 37.0064 3.39044 37.0064H0.49777C0.227701 37.0064 0.0324707 36.7875 0.0324707 36.5429V20.4347V20.4314Z" fill="white"/>
<path d="M13.8191 20.4314C13.8191 20.1868 14.0143 19.9679 14.2844 19.9679H24.4234C24.6934 19.9679 24.8887 20.1868 24.8887 20.4314V23.084C24.8887 23.3286 24.6934 23.5475 24.4234 23.5475H17.6391V26.5638H23.2227C23.4667 26.5638 23.688 26.7827 23.688 27.0273V29.6798C23.688 29.947 23.4667 30.1434 23.2227 30.1434H17.6391V33.4268H24.4234C24.6934 33.4268 24.8887 33.6457 24.8887 33.8904V36.5429C24.8887 36.7875 24.6934 37.0064 24.4234 37.0064H14.2844C14.0143 37.0064 13.8191 36.7875 13.8191 36.5429V20.4347V20.4314Z" fill="white"/>
<path d="M28.1719 20.4314C28.1719 20.1868 28.3671 19.9679 28.6372 19.9679H35.9583C38.8965 19.9679 41.2979 22.3275 41.2979 25.2246C41.2979 27.4619 39.8044 29.2646 37.6731 30.1144L41.0278 36.295C41.2003 36.6105 41.0278 37 40.6113 37H37.3542C37.159 37 37.0126 36.8777 36.9638 36.7811L33.7067 30.3333H32.0179V36.5365C32.0179 36.7811 31.7967 37 31.5526 37H28.6372C28.3671 37 28.1719 36.7811 28.1719 36.5365V20.4282V20.4314ZM35.6427 27.243C36.6481 27.243 37.5039 26.3191 37.5039 25.2955C37.5039 24.2718 36.6481 23.4477 35.6427 23.4477H32.0179V27.243H35.6427Z" fill="white"/>
<path d="M48.1505 33.9773C50.4004 33.9773 52.2243 32.1656 52.2243 29.9309C52.2243 27.6961 50.4004 25.8845 48.1505 25.8845C45.9006 25.8845 44.0767 27.6961 44.0767 29.9309C44.0767 32.1656 45.9006 33.9773 48.1505 33.9773Z" fill="white"/>
<path d="M57.8209 33.9773C60.0708 33.9773 61.8947 32.1656 61.8947 29.9309C61.8947 27.6961 60.0708 25.8845 57.8209 25.8845C55.571 25.8845 53.7471 27.6961 53.7471 29.9309C53.7471 32.1656 55.571 33.9773 57.8209 33.9773Z" fill="white"/>
<path d="M67.4945 33.9773C69.7444 33.9773 71.5683 32.1656 71.5683 29.9309C71.5683 27.6961 69.7444 25.8845 67.4945 25.8845C65.2446 25.8845 63.4207 27.6961 63.4207 29.9309C63.4207 32.1656 65.2446 33.9773 67.4945 33.9773Z" fill="white"/>
</g>
<defs>
<clipPath id="clip0_29_37">
<rect width="73" height="37" fill="white"/>
</clipPath>
</defs>
</svg>
